<svg width="95" height="95" viewBox="0 0 95 95" fill="none" xmlns="http://www.w3.org/2000/svg">
<rect width="95" height="95" fill="white"/>
<g clip-path="url(#clip0_562_3906)">
<rect width="47" height="47" transform="translate(48 48)" fill="#005AA6"/>
<path d="M71.5 90.0747L73.9627 92.5373L71.5 95L69.0374 92.5373L71.5 90.0747ZM90.0747 71.5L92.5374 73.9627L95 71.5L92.5374 69.0373L90.0747 71.5ZM73.9627 50.4627L71.5 48L69.0374 50.4627L71.5 52.9253L73.9627 50.4627ZM52.9253 71.5L50.4627 69.0373L48 71.5L50.4627 73.9627L52.9253 71.5ZM86.5379 71.4738L92.8255 77.7614L86.5641 84.0229L82.2676 79.7263L84.4944 77.4994L86.5379 79.5429L88.3718 77.709L84.3372 73.6745L73.7269 84.2848L77.7614 88.3194L79.5953 86.4855L77.5518 84.442L79.7787 82.2152L84.0753 86.5117L77.8138 92.7731L71.5262 86.4593L65.2648 92.7731L59.0033 86.5117L63.2999 82.2152L65.5268 84.442L63.4833 86.4855L65.3172 88.3194L69.3517 84.2848L58.82 73.7531L54.7068 77.709L56.5407 79.5429L58.558 77.4994L60.7848 79.7263L56.4883 84.0229L50.2269 77.7614L56.5407 71.4738L50.2269 65.1862L56.4883 58.9248L60.811 63.2475L58.5842 65.4744L56.5407 63.4309L54.733 65.291L58.7152 69.2731L69.3255 58.6628L65.3434 54.6544L63.5095 56.4883L65.553 58.5318L63.3261 60.7586L59.0033 56.4359L65.2648 50.1745L71.5524 56.4621L77.84 50.1745L84.1015 56.4359L79.7787 60.7586L77.5518 58.5318L79.5953 56.4883L77.7614 54.6544L73.7531 58.6628L84.3634 69.2731L88.3718 65.2648L86.5379 63.4309L84.4944 65.4744L82.2676 63.2475L86.5903 58.9248L92.8517 65.1862L86.5379 71.4738ZM82.1366 71.5L71.5 60.8634L60.9158 71.5L71.4738 82.1104L82.1366 71.5ZM71.4738 64.8718L78.1282 71.4476L71.4738 78.102L64.8456 71.4738L71.4738 64.8718ZM74.0413 71.4738L71.4738 68.9588L68.9326 71.5L71.4738 73.9627L74.0413 71.4738Z" fill="white"/>
</g>
<defs>
<clipPath id="clip0_562_3906">
<rect width="47" height="47" fill="white" transform="translate(48 48)"/>
</clipPath>
</defs>
</svg>
