<svg width="95" height="95" viewBox="0 0 95 95" fill="none" xmlns="http://www.w3.org/2000/svg">
<rect width="95" height="95" fill="white"/>
<rect width="47" height="47" transform="translate(0 47)" fill="#B52E17"/>
<path d="M44.8574 71.9748C44.8574 71.9748 45.787 69.2856 44.698 66.5964C43.4763 63.6143 41.0328 62.8688 41.0328 62.8688C41.0328 62.8688 41.0063 60.1264 38.5362 57.8366C36.4911 55.9196 34.0742 55.7332 34.0742 55.7332C34.0742 55.7332 33.2509 53.0973 30.4887 50.7276C27.8593 48.491 23.9816 47 23.9816 47C23.9816 47 20.1304 48.491 17.4745 50.7276C14.6857 53.0706 13.8889 55.7332 13.8889 55.7332C13.8889 55.7332 11.4986 55.9196 9.42692 57.8366C6.95688 60.153 6.93032 62.8688 6.93032 62.8688C6.93032 62.8688 4.48684 63.6143 3.2651 66.5964C2.17615 69.2856 3.10574 71.9748 3.10574 71.9748C3.10574 71.9748 1.67152 74.1048 2.06991 77.3265C2.41519 80.1222 4.40716 81.4268 4.40716 81.4268C4.40716 81.4268 4.14156 84.0628 5.81482 86.1129C7.54119 88.2164 9.87843 88.5359 9.87843 88.5359C9.87843 88.5359 10.7815 92.6362 15.2966 93.7811C17.9525 94.4734 22.0427 93.6214 22.9457 89.8139C23.8488 86.0065 21.4319 83.903 19.0149 84.3024C17.687 84.5154 16.3855 85.7668 16.7839 87.5774C17.1823 89.4145 18.9618 89.8405 18.9618 89.8405C18.8821 90.2665 17.2886 91.0121 15.7215 90.4529C12.4282 89.2814 12.6406 85.7668 12.6406 85.7668C12.6406 85.7668 9.82531 85.7136 8.33798 83.7965C7.01 82.0925 7.51463 79.9624 7.51463 79.9624C7.51463 79.9624 5.6289 79.0838 5.38986 76.368C5.12427 73.5989 6.71784 72.2144 6.71784 72.2144C6.71784 72.2144 5.52266 70.4571 6.47881 67.8212C7.51463 65.0521 10.0112 64.9723 10.0112 64.9723C10.0112 64.9723 9.61284 62.576 11.5517 60.4992C13.6499 58.2626 16.2527 58.3425 16.2527 58.3425C16.2527 58.3425 16.5714 56.8248 18.0322 55.0942C20.2632 52.405 24.0081 50.7276 24.0081 50.7276C24.0081 50.7276 27.753 52.3784 29.984 55.0942C31.4183 56.8248 31.7635 58.3425 31.7635 58.3425C31.7635 58.3425 34.3664 58.2626 36.4646 60.4992C38.4034 62.576 38.005 64.9723 38.005 64.9723C38.005 64.9723 40.5016 65.0521 41.5375 67.8212C42.4936 70.4305 41.2984 72.2144 41.2984 72.2144C41.2984 72.2144 42.8654 73.5989 42.6264 76.368C42.3874 79.0838 40.5016 79.9624 40.5016 79.9624C40.5016 79.9624 40.9797 82.0925 39.6783 83.7965C38.1909 85.7402 35.3756 85.7668 35.3756 85.7668C35.3756 85.7668 35.5881 89.2548 32.2947 90.4529C30.7277 91.0121 29.1341 90.2665 29.0545 89.8405C29.0545 89.8405 30.8339 89.4145 31.2323 87.5774C31.6307 85.7668 30.3293 84.5154 29.0013 84.3024C26.5844 83.903 24.1409 85.9798 25.0705 89.8139C25.9735 93.6214 30.0903 94.4734 32.7197 93.7811C37.2614 92.6096 38.1378 88.5359 38.1378 88.5359C38.1378 88.5359 40.4751 88.243 42.2014 86.1129C43.8747 84.0628 43.6091 81.4268 43.6091 81.4268C43.6091 81.4268 45.5745 80.1222 45.9463 77.3265C46.2916 74.1048 44.8574 71.9748 44.8574 71.9748Z" fill="white"/>
<path d="M38.6423 75.4097C39.0141 71.6555 37.0752 67.2889 32.2414 62.5761C28.2575 58.6888 23.9814 55.0944 23.9814 55.0944C23.9814 55.0944 19.6787 58.6888 15.7213 62.5761C10.9141 67.2889 8.94865 71.6288 9.32048 75.4097C9.74544 79.7763 12.8529 82.6252 17.8992 82.6252C21.9894 82.6252 23.9814 79.9626 23.9814 79.9626C23.9814 79.9626 25.9733 82.6252 30.0635 82.6252C35.1098 82.6518 38.2173 79.7763 38.6423 75.4097ZM27.9653 73.8121C29.8245 73.7056 30.4088 75.3032 29.9042 76.1552C29.4526 76.9539 28.7355 76.9007 28.948 77.0605C30.1432 77.9391 33.0913 77.0604 32.7992 74.1316C32.5336 71.4425 29.5854 70.9099 29.5854 70.9099C29.5854 70.9099 30.515 68.1409 29.7714 67.7149C28.7887 67.1557 26.0265 69.8716 26.0265 69.8716C26.0265 69.8716 25.6015 64.0406 23.9814 64.0406C22.3612 64.0406 21.9363 69.8716 21.9363 69.8716C21.9363 69.8716 19.1741 67.1557 18.1914 67.7149C17.4477 68.1409 18.3773 70.9099 18.3773 70.9099C18.3773 70.9099 15.4557 71.4425 15.1636 74.1316C14.8714 77.0604 17.8196 77.9391 19.0147 77.0605C19.2272 76.9007 18.5101 76.9539 18.0586 76.1552C17.554 75.3032 18.1383 73.7056 19.9974 73.8121C22.2284 73.9453 22.7065 76.8741 21.1926 78.5515C19.7053 80.2023 15.801 80.575 13.8356 78.445C11.2328 75.6227 11.7108 71.0963 16.4384 66.1972C20.6614 61.804 23.9814 59.1681 23.9814 59.1681C23.9814 59.1681 27.3279 61.804 31.5243 66.1972C36.2253 71.1229 36.73 75.6227 34.1271 78.445C32.1617 80.575 28.284 80.2023 26.7701 78.5515C25.2562 76.8741 25.7343 73.9453 27.9653 73.8121Z" fill="white"/>
</svg>
