<svg width="164" height="122" viewBox="0 0 164 122" fill="none" xmlns="http://www.w3.org/2000/svg">
<path d="M219.286 -0.774859L232.162 -13.6855L245.038 -0.77486L232.162 12.1358L219.286 -0.774859ZM122.494 -97.8273L135.37 -110.738L122.494 -123.649L109.618 -110.738L122.494 -97.8273ZM12.876 -13.6855L-5.36666e-06 -0.774849L12.876 12.1358L25.7519 -0.77485L12.876 -13.6855ZM122.494 96.2282L109.668 109.139L122.494 122L135.37 109.089L122.494 96.2282ZM122.346 -79.426L155.104 -112.271L187.713 -79.5743L165.316 -57.1167L153.772 -68.6918L164.378 -79.327L154.857 -88.874L133.841 -67.8014L189.144 -12.3499L210.16 -33.4225L200.638 -42.9694L190.032 -32.3342L178.488 -43.9093L200.885 -66.3669L233.593 -33.6203L200.737 -0.824334L233.593 31.9717L200.885 64.7677L178.488 42.3101L190.032 30.7351L200.638 41.3702L210.16 31.8233L189.144 10.7508L134.186 65.856L154.808 87.2748L164.378 77.6784L153.722 67.0926L165.266 55.5175L187.664 77.9752L155.054 110.672L122.297 77.7279L89.4905 110.672L56.8812 77.9752L79.4265 55.3692L90.9705 66.9442L80.3638 77.5794L90.0331 86.978L110.753 66.2022L55.4505 10.7508L34.5333 31.6255L44.1039 41.2219L54.7105 30.5866L66.2545 42.1617L43.7092 64.7677L11.1 32.0706L43.8572 -0.774851L11.1 -33.6698L43.7092 -66.3669L66.2545 -43.7609L54.7105 -32.1858L44.1039 -42.821L34.5826 -33.2741L55.4505 -12.3499L110.753 -67.8014L89.8851 -88.7256L80.3638 -79.1786L90.9705 -68.5434L79.4265 -56.9683L56.8812 -79.5743L89.4905 -112.271L122.346 -79.426ZM122.494 -56.4242L67.0438 -0.774852L122.494 54.5282L177.748 -0.675942L122.494 -56.4242ZM88.0105 -0.626461L122.346 -35.4011L157.028 -0.626464L122.494 33.9503L88.0105 -0.626461ZM122.396 -14.0318L109.322 -0.626462L122.494 12.581L135.37 -0.626463L122.396 -14.0318Z" fill="white" fill-opacity="0.15"/>
</svg>
