<svg width="95" height="95" viewBox="0 0 95 95" fill="none" xmlns="http://www.w3.org/2000/svg">
<rect width="95" height="95" fill="white"/>
<rect width="47" height="47" transform="translate(48 48)" fill="#005AA6"/>
<path d="M92.8574 72.9748C92.8574 72.9748 93.787 70.2856 92.698 67.5964C91.4763 64.6143 89.0328 63.8688 89.0328 63.8688C89.0328 63.8688 89.0063 61.1264 86.5362 58.8366C84.4911 56.9196 82.0742 56.7332 82.0742 56.7332C82.0742 56.7332 81.2509 54.0973 78.4887 51.7276C75.8593 49.491 71.9816 48 71.9816 48C71.9816 48 68.1304 49.491 65.4745 51.7276C62.6857 54.0706 61.8889 56.7332 61.8889 56.7332C61.8889 56.7332 59.4986 56.9196 57.4269 58.8366C54.9569 61.153 54.9303 63.8688 54.9303 63.8688C54.9303 63.8688 52.4868 64.6143 51.2651 67.5964C50.1762 70.2856 51.1057 72.9748 51.1057 72.9748C51.1057 72.9748 49.6715 75.1048 50.0699 78.3265C50.4152 81.1222 52.4072 82.4268 52.4072 82.4268C52.4072 82.4268 52.1416 85.0628 53.8148 87.1129C55.5412 89.2164 57.8784 89.5359 57.8784 89.5359C57.8784 89.5359 58.7815 93.6362 63.2966 94.7811C65.9525 95.4734 70.0427 94.6214 70.9457 90.8139C71.8488 87.0065 69.4319 84.903 67.0149 85.3024C65.687 85.5154 64.3855 86.7668 64.7839 88.5774C65.1823 90.4145 66.9618 90.8405 66.9618 90.8405C66.8821 91.2665 65.2886 92.0121 63.7215 91.4529C60.4282 90.2814 60.6406 86.7668 60.6406 86.7668C60.6406 86.7668 57.8253 86.7136 56.338 84.7965C55.01 83.0925 55.5146 80.9624 55.5146 80.9624C55.5146 80.9624 53.6289 80.0838 53.3899 77.368C53.1243 74.5989 54.7178 73.2144 54.7178 73.2144C54.7178 73.2144 53.5227 71.4571 54.4788 68.8212C55.5146 66.0521 58.0112 65.9723 58.0112 65.9723C58.0112 65.9723 57.6128 63.576 59.5517 61.4992C61.6499 59.2626 64.2527 59.3425 64.2527 59.3425C64.2527 59.3425 64.5714 57.8248 66.0322 56.0942C68.2632 53.405 72.0081 51.7276 72.0081 51.7276C72.0081 51.7276 75.753 53.3784 77.984 56.0942C79.4183 57.8248 79.7635 59.3425 79.7635 59.3425C79.7635 59.3425 82.3664 59.2626 84.4646 61.4992C86.4034 63.576 86.005 65.9723 86.005 65.9723C86.005 65.9723 88.5016 66.0521 89.5375 68.8212C90.4936 71.4305 89.2984 73.2144 89.2984 73.2144C89.2984 73.2144 90.8654 74.5989 90.6264 77.368C90.3874 80.0838 88.5016 80.9624 88.5016 80.9624C88.5016 80.9624 88.9797 83.0925 87.6783 84.7965C86.1909 86.7402 83.3756 86.7668 83.3756 86.7668C83.3756 86.7668 83.5881 90.2548 80.2947 91.4529C78.7277 92.0121 77.1341 91.2665 77.0545 90.8405C77.0545 90.8405 78.8339 90.4145 79.2323 88.5774C79.6307 86.7668 78.3293 85.5154 77.0013 85.3024C74.5844 84.903 72.1409 86.9798 73.0705 90.8139C73.9735 94.6214 78.0903 95.4734 80.7197 94.7811C85.2614 93.6096 86.1378 89.5359 86.1378 89.5359C86.1378 89.5359 88.4751 89.243 90.2014 87.1129C91.8747 85.0628 91.6091 82.4268 91.6091 82.4268C91.6091 82.4268 93.5745 81.1222 93.9463 78.3265C94.2916 75.1048 92.8574 72.9748 92.8574 72.9748Z" fill="white"/>
<path d="M86.6423 76.4097C87.0141 72.6555 85.0752 68.2889 80.2414 63.5761C76.2575 59.6888 71.9814 56.0944 71.9814 56.0944C71.9814 56.0944 67.6787 59.6888 63.7213 63.5761C58.9141 68.2889 56.9486 72.6288 57.3205 76.4097C57.7454 80.7763 60.8529 83.6252 65.8992 83.6252C69.9894 83.6252 71.9814 80.9626 71.9814 80.9626C71.9814 80.9626 73.9733 83.6252 78.0635 83.6252C83.1098 83.6518 86.2173 80.7763 86.6423 76.4097ZM75.9653 74.8121C77.8245 74.7056 78.4088 76.3032 77.9042 77.1552C77.4526 77.9539 76.7355 77.9007 76.948 78.0605C78.1432 78.9391 81.0913 78.0604 80.7992 75.1316C80.5336 72.4425 77.5854 71.9099 77.5854 71.9099C77.5854 71.9099 78.515 69.1409 77.7714 68.7149C76.7887 68.1557 74.0265 70.8716 74.0265 70.8716C74.0265 70.8716 73.6015 65.0406 71.9814 65.0406C70.3612 65.0406 69.9363 70.8716 69.9363 70.8716C69.9363 70.8716 67.1741 68.1557 66.1914 68.7149C65.4477 69.1409 66.3773 71.9099 66.3773 71.9099C66.3773 71.9099 63.4557 72.4425 63.1636 75.1316C62.8714 78.0604 65.8196 78.9391 67.0147 78.0605C67.2272 77.9007 66.5101 77.9539 66.0586 77.1552C65.554 76.3032 66.1383 74.7056 67.9974 74.8121C70.2284 74.9453 70.7065 77.8741 69.1926 79.5515C67.7053 81.2023 63.801 81.575 61.8356 79.445C59.2328 76.6227 59.7108 72.0963 64.4384 67.1972C68.6614 62.804 71.9814 60.1681 71.9814 60.1681C71.9814 60.1681 75.3279 62.804 79.5243 67.1972C84.2253 72.1229 84.73 76.6227 82.1271 79.445C80.1617 81.575 76.284 81.2023 74.7701 79.5515C73.2562 77.8741 73.7343 74.9453 75.9653 74.8121Z" fill="white"/>
</svg>
