<svg width="95" height="95" viewBox="0 0 95 95" fill="none" xmlns="http://www.w3.org/2000/svg">
<rect width="95" height="95" fill="white"/>
<rect width="47" height="47" transform="translate(48)" fill="#49A6F2"/>
<path d="M71.4822 47C85.246 47 94.8305 36.3183 94.9976 23.7172C95.0812 18.0703 92.9359 12.8129 89.5924 8.6682C85.9983 4.21748 83.0449 3.91149 81.1782 5.27452C79.8965 6.2203 80.1473 8.00059 80.1473 8.00059L78.0298 9.19672L81.0667 10.1981C83.1563 12.3122 83.2399 16.7351 80.9274 19.1552C77.584 22.6323 70.6185 19.4334 71.733 11.0883C72.736 3.57769 78.9771 1.24106 78.9771 1.24106C78.9771 1.24106 70.7021 -1.62409 64.461 1.35233C59.5573 3.71677 58.5822 8.36221 58.5822 8.36221C58.5822 8.36221 55.6567 8.36221 54.2357 11.3108C52.3411 15.2052 55.0994 19.6003 55.0994 19.6003C51.7839 27.2778 59.0837 32.9802 71.9002 33.175C60.2539 35.3169 49.9729 32.0623 48.3012 19.2108C45.905 35.9845 58.1921 47 71.4822 47ZM57.0498 21.9925C57.0498 21.9925 60.4489 27.083 67.9716 27.6394C67.9716 27.6394 61.2848 29.0859 58.1921 26.4989C56.1303 24.7464 57.0498 21.9925 57.0498 21.9925ZM58.3314 10.8379C58.3314 10.8379 58.3871 17.9034 64.461 22.2429C64.461 22.2429 56.9105 21.3249 56.0746 15.0383C55.6846 11.7281 58.3314 10.8379 58.3314 10.8379ZM64.4889 16.8742C62.4271 15.1774 60.4768 11.0326 62.4271 7.11044C64.4053 3.13262 68.7239 2.27029 72.4295 2.38156C62.26 5.41361 64.4889 16.8742 64.4889 16.8742ZM84.3544 7.83369C84.2708 8.33439 83.7693 8.66819 83.2399 8.55693C82.7106 8.44566 82.3484 7.97277 82.4598 7.47207C82.5434 6.97136 83.0449 6.63756 83.5743 6.74882C84.0758 6.83227 84.438 7.33298 84.3544 7.83369ZM59.0001 39.5729C59.0001 39.5729 65.7984 42.9109 74.3799 40.5743C81.7911 38.5715 89.2302 32.6464 91.7378 23.2443C91.7657 31.9232 86.4998 40.1292 77.3889 42.7718C66.2442 46.0264 59.0001 39.5729 59.0001 39.5729Z" fill="white"/>
<rect width="47" height="47" transform="translate(0 48)" fill="#367CB5"/>
</svg>
