<svg width="95" height="95" viewBox="0 0 95 95" fill="none" xmlns="http://www.w3.org/2000/svg">
<g clip-path="url(#clip0_562_3933)">
<rect width="95" height="95" transform="translate(0 95) rotate(-90)" fill="white"/>
<rect width="47" height="47" transform="translate(1 47) rotate(-90)" fill="#B52E17"/>
<g clip-path="url(#clip1_562_3933)">
<rect width="47" height="47" transform="translate(48 95) rotate(-90)" fill="#367CB5"/>
<path d="M71.4822 95C85.246 95 94.8305 84.3183 94.9976 71.7172C95.0812 66.0703 92.9359 60.8129 89.5924 56.6682C85.9983 52.2175 83.0449 51.9115 81.1782 53.2745C79.8965 54.2203 80.1473 56.0006 80.1473 56.0006L78.0298 57.1967L81.0667 58.1981C83.1563 60.3122 83.2399 64.7351 80.9274 67.1552C77.584 70.6323 70.6185 67.4334 71.733 59.0883C72.736 51.5777 78.9771 49.2411 78.9771 49.2411C78.9771 49.2411 70.7021 46.3759 64.461 49.3523C59.5573 51.7168 58.5822 56.3622 58.5822 56.3622C58.5822 56.3622 55.6567 56.3622 54.2357 59.3108C52.3411 63.2052 55.0994 67.6003 55.0994 67.6003C51.7839 75.2778 59.0837 80.9802 71.9002 81.175C60.2539 83.3169 49.9729 80.0623 48.3012 67.2108C45.905 83.9845 58.1921 95 71.4822 95ZM57.0498 69.9925C57.0498 69.9925 60.4489 75.083 67.9716 75.6394C67.9716 75.6394 61.2848 77.0859 58.1921 74.4989C56.1303 72.7464 57.0498 69.9925 57.0498 69.9925ZM58.3314 58.8379C58.3314 58.8379 58.3871 65.9034 64.461 70.2429C64.461 70.2429 56.9105 69.3249 56.0746 63.0383C55.6846 59.7281 58.3314 58.8379 58.3314 58.8379ZM64.4889 64.8742C62.4271 63.1774 60.4768 59.0326 62.4271 55.1104C64.4053 51.1326 68.7239 50.2703 72.4295 50.3816C62.26 53.4136 64.4889 64.8742 64.4889 64.8742ZM84.3544 55.8337C84.2708 56.3344 83.7693 56.6682 83.2399 56.5569C82.7106 56.4457 82.3484 55.9728 82.4598 55.4721C82.5434 54.9714 83.0449 54.6376 83.5743 54.7488C84.0758 54.8323 84.438 55.333 84.3544 55.8337ZM59.0001 87.5729C59.0001 87.5729 65.7984 90.9109 74.3799 88.5743C81.7911 86.5715 89.2302 80.6464 91.7378 71.2443C91.7657 79.9232 86.4998 88.1292 77.3889 90.7718C66.2442 94.0264 59.0001 87.5729 59.0001 87.5729Z" fill="white"/>
</g>
</g>
<defs>
<clipPath id="clip0_562_3933">
<rect width="95" height="95" fill="white" transform="translate(0 95) rotate(-90)"/>
</clipPath>
<clipPath id="clip1_562_3933">
<rect width="47" height="47" fill="white" transform="translate(48 95) rotate(-90)"/>
</clipPath>
</defs>
</svg>
